<svg width="16" height="22" viewBox="0 0 16 22" fill="none" xmlns="http://www.w3.org/2000/svg">
<path d="M4.84208 20.6211C4.84208 21.142 5.25875 21.6628 5.88375 21.6628H10.0504C10.6754 21.6628 11.0921 21.142 11.0921 20.6211V19.5795H4.84208V20.6211ZM7.96708 0.829468C3.90458 0.829468 0.675415 4.05863 0.675415 8.12113C0.675415 10.6211 1.92542 12.8086 3.80042 14.0586V16.4545C3.80042 16.9753 4.21708 17.4961 4.84208 17.4961H11.0921C11.7171 17.4961 12.1337 16.9753 12.1337 16.4545V14.0586C14.0087 12.7045 15.2587 10.517 15.2587 8.12113C15.2587 4.05863 12.0296 0.829468 7.96708 0.829468Z" fill="#E1E1E1"/>
</svg>
