<svg width="25" height="26" viewBox="0 0 25 26" fill="none" xmlns="http://www.w3.org/2000/svg">
<g clip-path="url(#clip0_12_94)">
<path d="M9.37504 22.6211C9.37504 23.194 9.84379 23.6628 10.4167 23.6628H14.5834C15.1563 23.6628 15.625 23.194 15.625 22.6211V21.5795H9.37504V22.6211ZM12.5 2.82947C8.47921 2.82947 5.20837 6.1003 5.20837 10.1211C5.20837 12.6003 6.44796 14.7774 8.33337 16.1003V18.4545C8.33337 19.0274 8.80212 19.4961 9.37504 19.4961H15.625C16.198 19.4961 16.6667 19.0274 16.6667 18.4545V16.1003C18.5521 14.7774 19.7917 12.6003 19.7917 10.1211C19.7917 6.1003 16.5209 2.82947 12.5 2.82947ZM14.5834 15.017V17.4128H10.4167V15.017C8.83337 13.9024 7.29171 12.7566 7.29171 10.1211C7.29171 7.24613 9.62504 4.9128 12.5 4.9128C15.375 4.9128 17.7084 7.24613 17.7084 10.1211C17.7084 12.7149 16.1355 13.9232 14.5834 15.017Z" fill="#E4E4E3"/>
</g>
<defs>
<clipPath id="clip0_12_94">
<rect width="25" height="25" fill="white" transform="translate(0 0.746155)"/>
</clipPath>
</defs>
</svg>
