<svg width="36" height="36" viewBox="0 0 36 36" fill="none" xmlns="http://www.w3.org/2000/svg">
<g id="Close_round_fill">
<path id="Subtract" fill-rule="evenodd" clip-rule="evenodd" d="M31.4561 17.8066C31.4561 25.0554 25.5798 30.9316 18.3311 30.9316C11.0823 30.9316 5.20605 25.0554 5.20605 17.8066C5.20605 10.5579 11.0823 4.68164 18.3311 4.68164C25.5798 4.68164 31.4561 10.5579 31.4561 17.8066ZM11.7906 24.3471C11.4001 23.9566 11.4001 23.3234 11.7906 22.9329L16.9168 17.8066L11.7906 12.6804C11.4001 12.2899 11.4001 11.6567 11.7906 11.2662C12.1811 10.8757 12.8143 10.8757 13.2048 11.2662L18.3311 16.3924L23.4573 11.2662C23.8478 10.8757 24.481 10.8757 24.8715 11.2662C25.262 11.6567 25.262 12.2899 24.8715 12.6804L19.7453 17.8066L24.8715 22.9329C25.262 23.3234 25.262 23.9566 24.8715 24.3471C24.481 24.7376 23.8478 24.7376 23.4573 24.3471L18.3311 19.2209L13.2048 24.3471C12.8143 24.7376 12.1811 24.7376 11.7906 24.3471Z" fill="#E62431"/>
</g>
</svg>
