<svg width="36" height="36" viewBox="0 0 36 36" fill="none" xmlns="http://www.w3.org/2000/svg">
<g id="Close_round_fill">
<path id="Subtract" fill-rule="evenodd" clip-rule="evenodd" d="M31.4561 18.1561C31.4561 25.4049 25.5798 31.2811 18.3311 31.2811C11.0823 31.2811 5.20605 25.4049 5.20605 18.1561C5.20605 10.9074 11.0823 5.03114 18.3311 5.03114C25.5798 5.03114 31.4561 10.9074 31.4561 18.1561ZM11.7906 24.6966C11.4001 24.3061 11.4001 23.6729 11.7906 23.2824L16.9168 18.1561L11.7906 13.0299C11.4001 12.6394 11.4001 12.0062 11.7906 11.6157C12.1811 11.2252 12.8143 11.2252 13.2048 11.6157L18.3311 16.7419L23.4573 11.6157C23.8478 11.2252 24.481 11.2252 24.8715 11.6157C25.262 12.0062 25.262 12.6394 24.8715 13.0299L19.7453 18.1561L24.8715 23.2824C25.262 23.6729 25.262 24.3061 24.8715 24.6966C24.481 25.0871 23.8478 25.0871 23.4573 24.6966L18.3311 19.5704L13.2048 24.6966C12.8143 25.0871 12.1811 25.0871 11.7906 24.6966Z" fill="#AFAFAF"/>
</g>
</svg>
