<svg width="24" height="25" viewBox="0 0 24 25" fill="none" xmlns="http://www.w3.org/2000/svg">
<g id="Edit_light">
<path id="Rectangle 1" d="M5.92971 20.0168L5.92972 20.0168L5.95149 20.0114L5.95151 20.0114L8.58384 19.3533C8.59896 19.3495 8.61396 19.3458 8.62885 19.3421C8.85159 19.2867 9.04877 19.2376 9.2278 19.1362C9.40683 19.0349 9.55035 18.891 9.71248 18.7286C9.72332 18.7177 9.73425 18.7067 9.74527 18.6957L16.9393 11.5017L16.9393 11.5016L16.9626 11.4784C17.2761 11.165 17.5461 10.8949 17.7333 10.6496C17.9339 10.3867 18.0858 10.0943 18.0858 9.73389C18.0858 9.3735 17.9339 9.08108 17.7333 8.81816C17.5461 8.57283 17.276 8.30279 16.9626 7.98938L16.9393 7.96612L16.5858 8.31967L16.9393 7.96612L16.7678 7.79455L16.7445 7.77127C16.4311 7.45783 16.1611 7.18777 15.9157 7.00059C15.6528 6.79999 15.3604 6.6481 15 6.6481C14.6396 6.6481 14.3472 6.79999 14.0843 7.00059C13.8389 7.18777 13.5689 7.45784 13.2555 7.77128L13.2322 7.79455L6.03816 14.9886C6.02714 14.9996 6.01619 15.0106 6.00533 15.0214C5.84286 15.1835 5.69903 15.3271 5.59766 15.5061C5.4963 15.6851 5.44723 15.8823 5.39179 16.105C5.38809 16.1199 5.38435 16.1349 5.38057 16.15L4.71704 18.8042C4.71483 18.813 4.7126 18.8219 4.71036 18.8309C4.67112 18.9876 4.62921 19.1549 4.61546 19.2954C4.60032 19.4502 4.60385 19.7112 4.81326 19.9206C5.02267 20.13 5.28373 20.1336 5.43846 20.1184C5.57899 20.1047 5.74633 20.0628 5.90301 20.0235C5.91195 20.0213 5.92085 20.0191 5.92971 20.0168Z" stroke="#222222"/>
<path id="Vector 107" d="M12.5 8.23389L15.5 6.23389L18.5 9.23389L16.5 12.2339L12.5 8.23389Z" fill="#222222"/>
</g>
</svg>
