<svg width="31" height="31" viewBox="0 0 31 31" fill="none" xmlns="http://www.w3.org/2000/svg">
<mask id="path-1-inside-1_11_30" fill="white">
<path d="M15.8638 8.41428C15.8638 8.17566 15.8638 8.05636 15.943 7.98226C16.0223 7.90815 16.136 7.91575 16.3635 7.93094C17.506 8.00721 18.6183 8.34433 19.6138 8.91909C20.754 9.57735 21.7008 10.5241 22.359 11.6643C23.0173 12.8044 23.3638 14.0978 23.3638 15.4143C23.3638 16.7308 23.0173 18.0241 22.359 19.1643C21.7008 20.3044 20.754 21.2512 19.6138 21.9095C18.4737 22.5677 17.1804 22.9143 15.8638 22.9143C14.5473 22.9143 13.254 22.5677 12.1138 21.9095C11.1183 21.3347 10.2702 20.54 9.63289 19.5886C9.506 19.3992 9.44255 19.3045 9.46712 19.1989C9.49168 19.0932 9.59501 19.0336 9.80165 18.9143L15.6138 15.5586C15.7358 15.4882 15.7968 15.453 15.8303 15.3949C15.8638 15.3369 15.8638 15.2665 15.8638 15.1256V8.41428Z"/>
</mask>
<path d="M15.8638 8.41428C15.8638 8.17566 15.8638 8.05636 15.943 7.98226C16.0223 7.90815 16.136 7.91575 16.3635 7.93094C17.506 8.00721 18.6183 8.34433 19.6138 8.91909C20.754 9.57735 21.7008 10.5241 22.359 11.6643C23.0173 12.8044 23.3638 14.0978 23.3638 15.4143C23.3638 16.7308 23.0173 18.0241 22.359 19.1643C21.7008 20.3044 20.754 21.2512 19.6138 21.9095C18.4737 22.5677 17.1804 22.9143 15.8638 22.9143C14.5473 22.9143 13.254 22.5677 12.1138 21.9095C11.1183 21.3347 10.2702 20.54 9.63289 19.5886C9.506 19.3992 9.44255 19.3045 9.46712 19.1989C9.49168 19.0932 9.59501 19.0336 9.80165 18.9143L15.6138 15.5586C15.7358 15.4882 15.7968 15.453 15.8303 15.3949C15.8638 15.3369 15.8638 15.2665 15.8638 15.1256V8.41428Z" fill="#333333" fill-opacity="0.25" stroke="#907CB4" stroke-width="2.4" mask="url(#path-1-inside-1_11_30)"/>
<circle cx="15.8638" cy="15.4143" r="10.65" stroke="#907CB4" stroke-width="1.2"/>
</svg>
