<svg width="31" height="31" viewBox="0 0 31 31" fill="none" xmlns="http://www.w3.org/2000/svg">
<g id="Home">
<path id="Rectangle 1" d="M7.11383 16.7541C7.11383 15.0569 7.11383 14.2083 7.45691 13.4624C7.79998 12.7164 8.44429 12.1642 9.7329 11.0597L10.9829 9.98824C13.312 7.99183 14.4766 6.99362 15.8638 6.99362C17.251 6.99362 18.4156 7.99183 20.7448 9.98824L21.9948 11.0597C23.2834 12.1642 23.9277 12.7164 24.2708 13.4624C24.6138 14.2083 24.6138 15.0569 24.6138 16.7541V22.0546C24.6138 24.4116 24.6138 25.5901 23.8816 26.3223C23.1494 27.0546 21.9709 27.0546 19.6138 27.0546H12.1138C9.75681 27.0546 8.5783 27.0546 7.84606 26.3223C7.11383 25.5901 7.11383 24.4116 7.11383 22.0546V16.7541Z" stroke="#046C98" stroke-width="3"/>
<path id="Vector 3" d="M18.9888 27.0546V20.5546C18.9888 20.0023 18.5411 19.5546 17.9888 19.5546H13.7388C13.1865 19.5546 12.7388 20.0023 12.7388 20.5546V27.0546" stroke="#046C98" stroke-width="3" stroke-linecap="round" stroke-linejoin="round"/>
</g>
</svg>
