<svg width="35" height="36" viewBox="0 0 35 36" fill="none" xmlns="http://www.w3.org/2000/svg">
<ellipse cx="8.75" cy="8.75" rx="8.75" ry="8.75" transform="matrix(-4.37114e-08 1 1 4.37114e-08 5.83337 9.66339)" fill="#7E869E" fill-opacity="0.25"/>
<path d="M23.6334 18.4134C23.6334 23.4116 19.5816 27.4634 14.5834 27.4634C9.5852 27.4634 5.53337 23.4116 5.53337 18.4134C5.53337 13.4152 9.5852 9.36339 14.5834 9.36339C19.5816 9.36339 23.6334 13.4152 23.6334 18.4134Z" stroke="#7E869E" stroke-opacity="0.25" stroke-width="0.6"/>
<path d="M23.3334 8.30978C21.5598 7.28582 19.548 6.74674 17.5 6.74674C15.4521 6.74674 13.4403 7.28582 11.6667 8.30978C9.89315 9.33375 8.42038 10.8065 7.39641 12.5801C6.37245 14.3536 5.83337 16.3655 5.83337 18.4134C5.83337 20.4613 6.37245 22.4732 7.39641 24.2467C8.42037 26.0203 9.89315 27.4931 11.6667 28.517C13.4403 29.541 15.4521 30.0801 17.5 30.0801C19.548 30.0801 21.5598 29.541 23.3334 28.517" stroke="#D13A30" stroke-width="2.2"/>
<path d="M32.0834 18.4134L32.9423 19.1006L33.4921 18.4134L32.9423 17.7262L32.0834 18.4134ZM18.9584 17.3134C18.3509 17.3134 17.8584 17.8059 17.8584 18.4134C17.8584 19.0209 18.3509 19.5134 18.9584 19.5134V17.3134ZM27.109 26.3922L32.9423 19.1006L31.2244 17.7262L25.3911 25.0179L27.109 26.3922ZM32.9423 17.7262L27.109 10.4346L25.3911 11.8089L31.2244 19.1006L32.9423 17.7262ZM32.0834 17.3134H18.9584V19.5134H32.0834V17.3134Z" fill="#D13A30"/>
</svg>
