<svg width="40" height="41" viewBox="0 0 40 41" fill="none" xmlns="http://www.w3.org/2000/svg">
<g id="Send_hor_fill">
<path id="Vector 121" d="M9.60222 13.8072L12.7905 19.5262C13.0558 20.0021 13.1885 20.2401 13.1885 20.5C13.1885 20.7599 13.0558 20.9979 12.7905 21.4739L9.60222 27.1929C8.3894 29.3683 7.783 30.4561 8.27073 30.9882C8.75846 31.5204 9.89479 31.0108 12.1674 29.9916L29.2639 22.3249C31.0143 21.54 31.8895 21.1475 31.8895 20.5C31.8895 19.8525 31.0143 19.46 29.2639 18.6751L12.1675 11.0084C9.89479 9.98926 8.75846 9.47969 8.27073 10.0118C7.783 10.544 8.3894 11.6317 9.60222 13.8072Z" fill="#222222"/>
</g>
</svg>
