<svg width="36" height="37" viewBox="0 0 36 37" fill="none" xmlns="http://www.w3.org/2000/svg">
<g id="Export">
<path id="Vector 9" d="M18 7.98148L17.2929 7.27437L18 6.56726L18.7071 7.27437L18 7.98148ZM19 21.4815C19 22.0338 18.5523 22.4815 18 22.4815C17.4477 22.4815 17 22.0338 17 21.4815L19 21.4815ZM9.79289 14.7744L17.2929 7.27437L18.7071 8.68858L11.2071 16.1886L9.79289 14.7744ZM18.7071 7.27437L26.2071 14.7744L24.7929 16.1886L17.2929 8.68858L18.7071 7.27437ZM19 7.98148L19 21.4815L17 21.4815L17 7.98148L19 7.98148Z" fill="#33363F"/>
<path id="Vector 114" d="M7.5 24.4815L7.5 25.9815C7.5 27.6383 8.84315 28.9815 10.5 28.9815L25.5 28.9815C27.1569 28.9815 28.5 27.6383 28.5 25.9815V24.4815" stroke="#33363F" stroke-width="2"/>
</g>
</svg>
